G04 ================== begin FILE IDENTIFICATION RECORD ==================*
G04 Layout Name:  ex2_RLC.brd*
G04 Film Name:    MetalT*
G04 File Format:  Gerber RS274X*
G04 File Origin:  Cadence Allegro 16.6-S034*
G04 Origin Date:  Thu Jul 11 11:34:46 2019*
G04 *
G04 Layer:  VIA CLASS/BOTTOM*
G04 Layer:  VIA CLASS/TOP*
G04 Layer:  PIN/PASTEMASK_TOP*
G04 Layer:  PIN/BOTTOM*
G04 Layer:  PIN/TOP*
G04 Layer:  PACKAGE GEOMETRY/PASTEMASK_TOP*
G04 Layer:  ETCH/BOTTOM*
G04 Layer:  ETCH/TOP*
G04 *
G04 Offset:    (0.000 0.000)*
G04 Mirror:    No*
G04 Mode:      Positive*
G04 Rotation:  0*
G04 FullContactRelief:  No*
G04 UndefLineWidth:     0.000*
G04 ================== end FILE IDENTIFICATION RECORD ====================*
%FSLAX35Y35*MOMM*%
%IR0*IPPOS*OFA0.00000B0.00000*MIA0B0*SFA1.00000B1.00000*%
%ADD13C,1.524*%
%ADD11C,1.651*%
%ADD12R,1.27X1.6*%
%ADD10C,.635*%
%ADD14C,.254*%
%ADD15C,.308*%
G75*
%LPD*%
G75*
G54D10*
X508000Y635000D03*
D03*
Y4445000D03*
D03*
X6477000Y508000D03*
D03*
Y4508500D03*
D03*
G54D11*
X1460500Y1270000D03*
D03*
X2476500D03*
D03*
X5588000Y2349500D03*
D03*
Y3365500D03*
D03*
G54D12*
X2501900Y2413000D03*
X2832100D03*
G54D13*
X2476500Y3873500D03*
D03*
Y3619500D03*
D03*
X4254500D03*
D03*
Y3873500D03*
D03*
G54D14*
G01X2832100Y2413000D02*
X5413700D01*
G01D02*
X5416500D01*
X5480000Y2349500D01*
G54D15*
G01X1460500Y1270000D02*
Y3556000D01*
X1778000Y3873500D01*
X2476500D01*
G01X2501900Y2413000D02*
Y1406200D01*
X2476500Y1380800D01*
Y1270000D01*
G01Y3619500D02*
Y2546600D01*
X2501900Y2521200D01*
Y2413000D01*
G01X4254500Y3873500D02*
X2476500D01*
G01X5588000Y3365500D02*
X5334000Y3619500D01*
X4254500D01*
G01X5480000Y2349500D02*
X5588000D01*
G01X5413700Y2413000D02*
X5477200Y2349500D01*
X5480000D01*
M02*
